# xmcd
#
# Track frame offsets:
#   150
#   10675
#   27657
#   40562
#   55965
#   68885
#   84077
#   97322
#   111572
#   124415
#   145030
#   157375
#
# Disc length: 2301 seconds
#
# Revision: 0
# Processed by: cddbd v1.4PL0 Copyright (c) Steve Scherf et al.
# Submitted via: uFREEDB 1.6.0
#
DISCID=a908fb0c
DTITLE=Maria Teresa Chacin - Con la Orquesta sinfonica
DYEAR=1900
DGENRE=Alternative
TTITLE0=Golpe y estribillo
TTITLE1=El arreo
TTITLE2=Campesina
TTITLE3=Mi querencia
TTITLE4=Aire Oriental
TTITLE5=Pajarillo
TTITLE6=Tema de amor
TTITLE7=Calor
TTITLE8=Poco a poco
TTITLE9=Asi eres tu
TTITLE10=Tu y yo formamos una multitud
TTITLE11=Quinta Anauco
EXTD=
EXTT0=
EXTT1=
EXTT2=
EXTT3=
EXTT4=
EXTT5=
EXTT6=
EXTT7=
EXTT8=
EXTT9=
EXTT10=
EXTT11=
PLAYORDER=
